<?xml version="1.0" standalone="no"?>
<!DOCTYPE svg PUBLIC "-//W3C//DTD SVG 1.1//EN" "http://www.w3.org/Graphics/SVG/1.1/DTD/svg11.dtd" >
<svg xmlns="http://www.w3.org/2000/svg" xmlns:xlink="http://www.w3.org/1999/xlink" version="1.1">
<metadata></metadata>
<defs>
<font id="neue_haas_grotesk_disp55roman" horiz-adv-x="1128" >
<font-face units-per-em="2048" ascent="1675" descent="-373" />
<missing-glyph horiz-adv-x="325" />
<glyph unicode="&#xfb01;" horiz-adv-x="972" d="M45 924v135h145v170q0 131 72 189.5t209 58.5q39 0 84 -4v-142q-29 2 -53 2q-80 0 -113 -24.5t-33 -87.5v-162h197v-135h-197v-924h-166v924h-145zM694 0v1059h166v-1059h-166zM694 1260v204h166v-204h-166z" />
<glyph unicode="&#xfb02;" horiz-adv-x="985" d="M45 924v135h145v170q0 131 72 189.5t209 58.5q39 0 84 -4v-142q-29 2 -53 2q-80 0 -113 -24.5t-33 -87.5v-162h197v-135h-197v-924h-166v924h-145zM700 0v1464h166v-1464h-166z" />
<glyph unicode="&#xfb03;" horiz-adv-x="1476" d="M45 924v135h145v158q0 131 72 189t209 58q35 0 80 -4v-141q-25 2 -51 2q-80 0 -112 -24.5t-32 -88.5v-149h338v170q0 131 72 189.5t209 58.5q39 0 84 -4v-142q-29 2 -53 2q-80 0 -113 -24.5t-33 -87.5v-162h197v-135h-197v-924h-166v924h-338v-924h-166v924h-145zM1198 0 v1059h166v-1059h-166zM1198 1260v204h166v-204h-166z" />
<glyph unicode="&#xfb04;" horiz-adv-x="1488" d="M45 924v135h145v158q0 131 72 189t209 58q35 0 80 -4v-141q-25 2 -51 2q-80 0 -112 -24.5t-32 -88.5v-149h338v170q0 131 72 189.5t209 58.5q39 0 84 -4v-142q-29 2 -53 2q-80 0 -113 -24.5t-33 -87.5v-162h197v-135h-197v-924h-166v924h-338v-924h-166v924h-145zM1204 0 v1464h166v-1464h-166z" />
<glyph horiz-adv-x="0" />
<glyph unicode="&#xd;" horiz-adv-x="681" />
<glyph unicode=" "  horiz-adv-x="325" />
<glyph unicode="&#x09;" horiz-adv-x="325" />
<glyph unicode="&#xa0;" horiz-adv-x="325" />
<glyph unicode="!" horiz-adv-x="481" d="M141 0v203h199v-203h-199zM150 995v469h182v-469l-45 -641h-92z" />
<glyph unicode="&#x22;" horiz-adv-x="608" d="M86 1026v438h152v-438h-152zM371 1026v438h151v-438h-151z" />
<glyph unicode="#" horiz-adv-x="1185" d="M63 406l23 147h207l45 315h-209l23 148h206l54 389h139l-53 -389h278l53 389h140l-54 -389h207l-22 -148h-205l-45 -315h205l-23 -147h-203l-55 -406h-139l55 406h-278l-56 -406h-139l55 406h-209zM432 553h279l45 315h-279z" />
<glyph unicode="$" horiz-adv-x="1185" d="M33 473h172q14 -152 93 -235.5t241 -98.5v531q-109 25 -177.5 48t-135 66t-97.5 110t-31 161q0 170 121 271t320 112v112h114v-112q389 -29 439 -375h-166q-29 209 -273 237v-493q115 -23 188.5 -47.5t144.5 -67.5t104.5 -113.5t33.5 -170.5q0 -180 -132 -290t-339 -120 v-172h-114v174q-248 16 -372 148.5t-134 324.5zM260 1063q0 -96 65.5 -148.5t213.5 -85.5v474q-127 -10 -203 -73t-76 -167zM653 137q129 10 216 80.5t87 183.5q0 106 -69.5 155.5t-233.5 86.5v-506z" />
<glyph unicode="%" horiz-adv-x="1665" d="M49 1030q0 184 94.5 295t237.5 111t235.5 -109.5t92.5 -296.5q0 -184 -90.5 -294.5t-238 -110.5t-239.5 110.5t-92 294.5zM205 1030q0 -125 46 -203.5t130 -78.5t130 77.5t46 204.5q0 123 -47 203t-129 80q-84 0 -130 -78t-46 -205zM360 0l805 1403h140l-805 -1403h-140z M956 374.5q0 184.5 94.5 295t238 110.5t235.5 -109.5t92 -295.5q0 -184 -90 -295t-237.5 -111t-240 110.5t-92.5 295zM1112 375q0 -125 46 -204t130 -79t130 78t46 205q0 123 -47 202.5t-129 79.5q-84 0 -130 -77.5t-46 -204.5z" />
<glyph unicode="&#x26;" horiz-adv-x="1202" d="M80 362q0 150 79 246.5t238 194.5l-41 53q-113 145 -112 301q0 125 91 209t224 84q131 0 224.5 -80t93.5 -225q0 -121 -70 -202t-199 -165l291 -370q49 127 49 270h144q0 -217 -95 -395l222 -283h-199l-115 147q-161 -176 -405 -176q-168 0 -294 109.5t-126 281.5z M246 362q0 -106 76.5 -175.5t187.5 -69.5q180 0 305 147l-336 432q-117 -78 -175 -150.5t-58 -183.5zM399 1155q0 -106 90 -223l39 -51q98 63 143.5 124.5t45.5 143.5q0 76 -43 120t-115 44t-116 -44t-44 -114z" />
<glyph unicode="'" horiz-adv-x="323" d="M86 1026v438h152v-438h-152z" />
<glyph unicode="(" horiz-adv-x="622" d="M145 686q0 440 299 858h136q-240 -408 -240 -858q0 -487 240 -928h-136q-141 217 -220 438.5t-79 489.5z" />
<glyph unicode=")" horiz-adv-x="622" d="M45 -242q240 440 240 928q0 451 -240 858h135q299 -418 299 -858q0 -268 -78.5 -489.5t-220.5 -438.5h-135z" />
<glyph unicode="*" horiz-adv-x="753" d="M90 1210l37 95l195 -64v223h110v-223l195 64l37 -95l-195 -67l123 -178l-88 -62l-127 189l-127 -189l-88 62l123 178z" />
<glyph unicode="+" horiz-adv-x="1146" d="M109 602v131h397v410h135v-410h397v-131h-397v-409h-135v409h-397z" />
<glyph unicode="," horiz-adv-x="378" d="M90 0v203h199v-209q0 -109 -53.5 -173.5t-143.5 -82.5v92q92 33 92 170h-94z" />
<glyph unicode="-" horiz-adv-x="704" d="M78 489v152h549v-152h-549z" />
<glyph unicode="." horiz-adv-x="378" d="M90 0v203h199v-203h-199z" />
<glyph unicode="/" horiz-adv-x="819" d="M33 0l581 1464h172l-581 -1464h-172z" />
<glyph unicode="0" horiz-adv-x="1269" d="M90 702q0 340 148.5 537t398.5 197t396.5 -196t146.5 -538q0 -340 -142.5 -536.5t-402.5 -196.5q-256 0 -400.5 198t-144.5 535zM268 702q0 -274 93.5 -428.5t275.5 -154.5t273 152.5t91 430.5q0 274 -93 430t-271 156q-182 0 -275.5 -153.5t-93.5 -432.5z" />
<glyph unicode="1" horiz-adv-x="708" d="M70 1022v115q311 8 346 274h133v-1411h-172v1022h-307z" />
<glyph unicode="2" horiz-adv-x="1138" d="M63 0q6 129 44 227.5t129.5 180t143.5 117.5t183 112q4 4 6 5t6.5 3t7.5 4t7 4q162 94 229.5 163t67.5 185q0 129 -83 209t-222 80q-141 0 -224 -88q-80 -86 -79 -280h-181q0 248 133 381q133 131 365 131q211 0 340 -121t129 -309q0 -76 -22.5 -139.5t-47 -102.5 t-90 -89t-97.5 -68.5t-124 -69.5q-18 -10 -29 -17q-98 -55 -162.5 -96t-134 -113.5t-88.5 -144.5h766v-164h-973z" />
<glyph unicode="3" horiz-adv-x="1165" d="M37 463h170q4 -168 105.5 -259t277.5 -91q152 0 242 74.5t90 220.5q0 133 -95.5 202.5t-273.5 69.5h-88v133h86q162 0 246 63.5t84 178.5q0 113 -87 179t-219 66q-150 0 -236.5 -89t-86.5 -236h-168q2 209 135 335t363 126q201 0 334 -103.5t133 -281.5q0 -217 -232 -295 v-6q283 -74 283 -359q0 -197 -142.5 -309.5t-361.5 -112.5q-240 0 -397.5 131t-161.5 363z" />
<glyph unicode="4" horiz-adv-x="1159" d="M53 344v154l695 919h135v-936h231v-137h-231v-344h-168v344h-662zM219 481h496v658h-4l-492 -652v-6z" />
<glyph unicode="5" horiz-adv-x="1132" d="M47 406h170q16 -133 106.5 -209t237.5 -76q150 0 240 93t90 246.5t-93 244t-237 90.5q-213 0 -315 -146h-166l156 754h747v-154h-627l-92 -422h4q125 119 321.5 119t337 -133t140.5 -356q0 -221 -141.5 -354.5t-362.5 -133.5q-219 0 -363.5 121t-152.5 316z" />
<glyph unicode="6" horiz-adv-x="1189" d="M90 711q0 334 140.5 529.5t402.5 195.5q199 0 311.5 -112t130.5 -277h-170q-10 104 -80.5 173.5t-187.5 69.5q-197 0 -286 -146.5t-93 -418.5h4q141 195 385 195q193 0 327 -138.5t136 -332.5q2 -197 -136 -338.5t-335 -141.5q-215 0 -350 125q-109 98 -154 244.5 t-45 372.5zM289 444q0 -147 98 -241t248 -94q137 0 226 93t89 240.5t-92 241.5t-229 94q-152 0 -246 -92t-94 -242z" />
<glyph unicode="7" horiz-adv-x="1050" d="M47 1249v154h981v-141q-238 -209 -407.5 -540t-190.5 -722h-184q23 362 192.5 706.5t409.5 538.5v4h-801z" />
<glyph unicode="8" horiz-adv-x="1196" d="M68 401q0 270 288 365v6q-100 39 -159.5 116t-59.5 183q0 164 132 265.5t329 101.5q199 0 330 -100.5t131 -266.5q0 -215 -215 -299v-6q125 -37 204.5 -132t79.5 -233q0 -221 -152.5 -326.5t-371.5 -105.5q-102 0 -193.5 23.5t-170 73t-125.5 135.5t-47 200zM244 401 q0 -137 95 -212.5t265 -75.5q164 0 258 76.5t94 211.5q0 139 -95 219t-263 80q-166 0 -260 -79.5t-94 -219.5zM305 1064.5q0 -106.5 79 -167.5t214 -61t214 61t79 167.5t-79 168t-214 61.5t-214 -61.5t-79 -168z" />
<glyph unicode="9" horiz-adv-x="1189" d="M82 956q-2 199 139 339.5t352 140.5q188 0 324 -105q117 -90 164 -241.5t47 -395.5q0 -438 -197 -612q-128 -113 -329 -113q-209 0 -343.5 114t-142.5 298h174q10 -119 90 -192.5t218 -73.5q156 0 237 92q113 121 125 457h-4q-143 -178 -387 -179q-193 0 -329 138.5 t-138 332.5zM242 962.5q0 -147.5 95 -241.5t234 -94q158 0 251 93t93 243q0 147 -99 240t-243 93q-147 0 -239 -93t-92 -240.5z" />
<glyph unicode=":" horiz-adv-x="391" d="M96 0v203h199v-203h-199zM96 621v202h199v-202h-199z" />
<glyph unicode=";" horiz-adv-x="391" d="M96 0v203h199v-209q0 -109 -53.5 -173.5t-143.5 -82.5v92q92 33 92 170h-94zM96 621v202h199v-202h-199z" />
<glyph unicode="&#x3c;" horiz-adv-x="1046" d="M102 553v170l834 354v-149l-703 -285v-4l703 -289v-151z" />
<glyph unicode="=" horiz-adv-x="1146" d="M109 397v131h929v-131h-929zM109 756v131h929v-131h-929z" />
<glyph unicode="&#x3e;" horiz-adv-x="1046" d="M111 199v149l702 285v4l-702 289v151l833 -354v-170z" />
<glyph unicode="?" horiz-adv-x="1032" d="M35 993q4 223 125 360.5t364 137.5q209 0 328 -111.5t119 -279.5q0 -115 -50.5 -193t-138.5 -151q-135 -113 -175 -182.5t-42 -219.5h-155q2 166 48 263.5t167 203.5q63 57 87.5 81t53.5 79t29 117q0 104 -74 174.5t-203 70.5q-154 0 -232.5 -93t-82.5 -257h-168zM387 0 v203h199v-203h-199z" />
<glyph unicode="@" horiz-adv-x="1802" d="M68 584q0 203 74.5 372.5t197.5 277t278.5 167t321.5 59.5q154 0 294 -48t252.5 -138t180.5 -234.5t68 -320.5q0 -244 -95.5 -393.5t-277.5 -149.5t-236 148h-4q-49 -74 -127 -118t-168 -44q-162 0 -256 107.5t-94 281.5q0 233 119 374.5t301 141.5q176 0 252 -145h4 l16 125h160l-69 -570q-23 -170 112 -170q90 0 155.5 102.5t65.5 301.5q0 303 -184 461.5t-475 158.5q-299 0 -510 -204.5t-211 -544.5q0 -299 181 -485.5t503 -186.5q195 0 381 72l47 -113q-190 -84 -418 -84q-373 0 -606 220t-233 579zM643 553q0 -119 50.5 -191.5 t150.5 -72.5q137 0 207.5 108.5t70.5 282.5q0 121 -55 189.5t-166 68.5q-129 0 -193.5 -107.5t-64.5 -277.5z" />
<glyph unicode="A" horiz-adv-x="1327" d="M20 0l539 1464h207l541 -1464h-201l-156 446h-583l-158 -446h-189zM420 596h479l-168 491l-65 207h-4q-39 -123 -68 -207z" />
<glyph unicode="B" horiz-adv-x="1318" d="M137 0v1464h621q231 0 352 -127q94 -98 94 -250q0 -233 -235 -307v-6q131 -31 213 -122t82 -232q0 -168 -107 -281q-129 -139 -366 -139h-654zM322 166h460q152 0 230 74q65 69 65 167q0 136 -84 205.5t-223 69.5h-448v-516zM322 838h413q133 0 209 63.5t76 175.5 q0 106 -68.5 167t-191.5 61h-438v-467z" />
<glyph unicode="C" horiz-adv-x="1452" d="M82 733q0 332 187.5 548t506.5 216q250 0 403.5 -129t184.5 -338h-180q-27 139 -134.5 223t-277.5 84q-236 0 -369 -169t-133 -435q0 -270 138.5 -435t365.5 -165q197 0 304.5 114.5t121.5 289.5h182q-2 -109 -50 -222.5t-126 -189.5q-157 -154 -438 -154 q-309 0 -497.5 213t-188.5 549z" />
<glyph unicode="D" horiz-adv-x="1400" d="M137 0v1464h533q322 0 485.5 -198.5t163.5 -538.5q0 -338 -170 -532.5t-494 -194.5h-518zM322 162h327q481 0 481 565q0 578 -466 578h-342v-1143z" />
<glyph unicode="E" horiz-adv-x="1273" d="M137 0v1464h1034v-161h-849v-463h772v-156h-772v-514h874v-170h-1059z" />
<glyph unicode="F" horiz-adv-x="1183" d="M137 0v1464h993v-161h-808v-457h673v-156h-673v-690h-185z" />
<glyph unicode="G" horiz-adv-x="1519" d="M82 727q0 336 185.5 552t518.5 216q250 0 405 -126t191 -345h-190q-31 150 -135.5 230.5t-274.5 80.5q-254 0 -383 -168t-129 -440q0 -268 141.5 -433t364.5 -165q215 0 329 127t114 324v34h-441v160h625v-774h-119l-53 193h-4q-160 -223 -457 -224q-307 0 -497.5 211 t-190.5 547z" />
<glyph unicode="H" horiz-adv-x="1425" d="M137 0v1464h185v-622h782v622h184v-1464h-184v692h-782v-692h-185z" />
<glyph unicode="I" horiz-adv-x="466" d="M141 0v1464h185v-1464h-185z" />
<glyph unicode="J" horiz-adv-x="1017" d="M45 455v20h182v-14q0 -188 60.5 -263t193.5 -75q233 0 234 260v1081h184v-1093q0 -182 -109.5 -291t-314.5 -109q-430 0 -430 484z" />
<glyph unicode="K" horiz-adv-x="1318" d="M137 0v1464h185v-727l720 727h232l-592 -585l641 -879h-215l-551 754l-235 -236v-518h-185z" />
<glyph unicode="L" horiz-adv-x="1134" d="M137 0v1464h185v-1294h768v-170h-953z" />
<glyph unicode="M" horiz-adv-x="1699" d="M137 0v1464h236l475 -1216h4l471 1216h240v-1464h-177v1204h-4q-39 -115 -65 -184l-402 -1020h-141l-401 1020l-66 184h-4v-1204h-166z" />
<glyph unicode="N" horiz-adv-x="1419" d="M137 0v1464h195l667 -1018l107 -188h4v1206h172v-1464h-188l-672 1020l-109 182h-4v-1202h-172z" />
<glyph unicode="O" horiz-adv-x="1597" d="M82 733q0 334 195.5 549t521 215t521.5 -215t196 -549t-196 -549t-521.5 -215t-521 215t-195.5 549zM270 733q0 -266 139.5 -434t389.5 -168t389 168t139 434t-139 435t-389 169t-389.5 -169t-139.5 -435z" />
<glyph unicode="P" horiz-adv-x="1234" d="M137 0v1464h611q229 0 348 -141q98 -115 98 -279q0 -205 -119 -317.5t-354 -112.5h-399v-614h-185zM322 764h385q152 0 228.5 71.5t76.5 200.5q0 131 -77 200t-218 69h-395v-541z" />
<glyph unicode="Q" horiz-adv-x="1597" d="M82 733q0 334 195.5 549t521 215t521.5 -215t196 -549q0 -367 -228 -581l195 -156l-94 -119l-228 180q-158 -88 -362 -88q-326 0 -521.5 215t-195.5 549zM270 733q0 -266 139.5 -434t389.5 -168q121 0 219 41l-148 119l95 119l186 -150q176 166 176 473q0 266 -139 435 t-389 169t-389.5 -169t-139.5 -435z" />
<glyph unicode="R" horiz-adv-x="1339" d="M137 0v1464h684q193 0 312.5 -110.5t119.5 -290.5q0 -281 -254 -363v-6q109 -39 155 -122t56 -250q20 -281 68 -314v-8h-199q-23 18 -32 77.5t-21 250.5q-10 160 -78.5 225t-218.5 65h-407v-618h-185zM322 768h434q152 0 229.5 70.5t77.5 197.5q0 137 -69.5 203 t-227.5 66h-444v-537z" />
<glyph unicode="S" horiz-adv-x="1282" d="M45 496h180q37 -377 453 -377q158 0 253 70.5t95 203.5q0 59 -22.5 104.5t-54 74t-95 53t-118 39t-148.5 34.5q-113 25 -186.5 50.5t-147.5 70.5t-109.5 116t-35.5 171q0 180 136 283.5t361 103.5q494 0 555 -457h-174q-20 156 -116.5 235t-260.5 79q-152 0 -240.5 -61.5 t-88.5 -174.5q0 -49 19 -87t51 -63.5t84 -46t103.5 -34t125.5 -27.5q102 -20 167.5 -37.5t145.5 -52.5t124 -80t75.5 -117.5t31.5 -169.5q0 -201 -148 -314.5t-390 -113.5q-295 0 -454 145.5t-171 379.5z" />
<glyph unicode="T" horiz-adv-x="1249" d="M45 1303v161h1159v-161h-487v-1303h-185v1303h-487z" />
<glyph unicode="U" horiz-adv-x="1347" d="M113 473v991h184v-972q0 -356 383 -357q371 0 371 357v972h184v-991q0 -252 -154.5 -374t-406.5 -122q-256 0 -408.5 121t-152.5 375z" />
<glyph unicode="V" horiz-adv-x="1267" d="M20 1464h199l361 -1089l57 -197h4q35 131 57 197l357 1089h192l-514 -1464h-203z" />
<glyph unicode="W" horiz-adv-x="1871" d="M29 1464h192l232 -952l55 -248h4q35 156 61 252l265 948h198l256 -948l60 -252h4q35 158 57 248l244 952h186l-407 -1464h-176l-269 1032l-53 223h-4q-31 -137 -55 -223l-287 -1032h-184z" />
<glyph unicode="X" horiz-adv-x="1261" d="M29 0l508 750l-471 714h213l362 -585h4l371 585h203l-480 -716l494 -748h-221l-377 616h-4l-393 -616h-209z" />
<glyph unicode="Y" horiz-adv-x="1292" d="M20 1464h205l420 -696h4l426 696h197l-537 -848v-616h-184v621z" />
<glyph unicode="Z" horiz-adv-x="1273" d="M61 0v176l877 1127v6h-825v155h1052v-143l-889 -1149v-6h924v-166h-1139z" />
<glyph unicode="[" horiz-adv-x="606" d="M158 -242v1786h387v-135h-215v-1509h215v-142h-387z" />
<glyph unicode="\" horiz-adv-x="819" d="M33 1464h172l581 -1464h-172z" />
<glyph unicode="]" horiz-adv-x="606" d="M61 -100h215v1509h-215v135h388v-1786h-388v142z" />
<glyph unicode="^" horiz-adv-x="927" d="M23 877l344 587h194l344 -587h-174l-264 458h-4l-266 -458h-174z" />
<glyph unicode="_" horiz-adv-x="835" d="M-4 -215h844v-125h-844v125z" />
<glyph unicode="`" horiz-adv-x="1024" d="M285 1485h204l105 -260h-141z" />
<glyph unicode="a" horiz-adv-x="1044" d="M49 274q0 74 23.5 128.5t60.5 88t101.5 59t124 39t151.5 27.5q59 8 85 13.5t66.5 16.5t57 25.5t31 39t14.5 57.5q0 90 -62.5 138t-175.5 48q-256 0 -264 -233h-160q4 162 112 260t310 98q391 0 391 -336v-503q0 -70 24 -98q16 -19 51 -20q17 0 38 5h6v-121 q-41 -16 -90 -16q-158 0 -182 157h-2q-130 -167 -349 -167h-3q-158 0 -258.5 75.5t-100.5 218.5zM225 279q0 -173 219 -173q154 0 238 89.5t84 195.5v180q-76 -47 -242 -77q-61 -12 -96 -19.5t-80 -25t-67.5 -38t-39 -54t-16.5 -78.5z" />
<glyph unicode="b" horiz-adv-x="1126" d="M113 0v1464h166v-557h4q129 176 340 176q205 0 327.5 -148.5t122.5 -408.5q0 -256 -122 -406.5t-335 -150.5q-211 0 -333 170h-4v-139h-166zM268 524q0 -186 86 -300.5t250 -114.5q147 0 223 113.5t76 301.5q0 186 -75.5 302t-221.5 116q-166 0 -252 -117.5t-86 -300.5z " />
<glyph unicode="c" horiz-adv-x="1062" d="M53 528.5q0 237.5 140.5 397t371.5 159.5q186 0 305 -99t148 -269h-168q-18 109 -92 170t-193 61q-164 0 -253 -118.5t-89 -301t89 -300t253 -117.5q127 0 203 68.5t86 193.5h164q-16 -190 -135 -296t-318 -106q-231 0 -371.5 160t-140.5 397.5z" />
<glyph unicode="d" horiz-adv-x="1132" d="M53 526q0 258 131 407.5t334 149.5q215 0 332 -174h4v555h166v-1464h-166v129h-4q-125 -160 -328 -160q-217 0 -343 150.5t-126 406.5zM223 524.5q0 -186.5 79 -301t226 -114.5q170 0 253 112.5t83 302.5q0 188 -89 303t-249 115q-145 0 -224 -115.5t-79 -302z" />
<glyph unicode="e" horiz-adv-x="1091" d="M53 528q0 236 140.5 396.5t361.5 160.5q233 0 360 -162.5t127 -433.5h-819q10 -168 99.5 -273t242.5 -105q238 0 293 217h162q-37 -170 -156 -263.5t-299 -93.5q-236 0 -374 159t-138 398zM227 614h637q-8 160 -88 250t-221 90t-224 -94t-104 -246z" />
<glyph unicode="f" horiz-adv-x="602" d="M45 924v135h145v170q0 131 72 189.5t209 58.5q39 0 84 -4v-142q-29 2 -53 2q-80 0 -113 -24.5t-33 -87.5v-162h197v-135h-197v-924h-166v924h-145z" />
<glyph unicode="g" horiz-adv-x="1112" d="M53 561q0 240 130 381t323 141q209 0 323 -159h5v135h165v-1002q0 -203 -123.5 -306t-340.5 -103q-203 0 -319 76.5t-130 216.5h154q23 -162 290 -162q303 0 304 272v150h-5q-63 -82 -134.5 -123t-178.5 -41q-205 0 -334 147.5t-129 376.5zM223 559q0 -176 78 -279.5 t223 -103.5q322 0 322 393q0 375 -324 375q-145 0 -222 -104.5t-77 -280.5z" />
<glyph unicode="h" horiz-adv-x="1081" d="M113 0v1464h166v-544h4q122 163 332 163h3q168 0 262.5 -88t94.5 -252v-743h-166v729q0 102 -63.5 158.5t-176.5 56.5q-127 0 -208.5 -82t-81.5 -211v-651h-166z" />
<glyph unicode="i" horiz-adv-x="391" d="M113 0v1059h166v-1059h-166zM113 1260v204h166v-204h-166z" />
<glyph unicode="j" horiz-adv-x="391" d="M-57 -158h4q31 -6 57 -6q109 0 109 103v1120h166v-1129q0 -135 -63.5 -183t-180.5 -48q-39 0 -92 8v135zM113 1260v204h166v-204h-166z" />
<glyph unicode="k" horiz-adv-x="1001" d="M113 0v1464h166v-858l464 453h211l-405 -381l455 -678h-195l-375 571l-155 -147v-424h-166z" />
<glyph unicode="l" horiz-adv-x="403" d="M119 0v1464h166v-1464h-166z" />
<glyph unicode="m" horiz-adv-x="1626" d="M113 0v1059h166v-152h4q51 80 133 128t178 48q207 0 276 -188h4q49 88 137.5 138t186.5 50q145 0 233.5 -89t88.5 -251v-743h-166v735q0 96 -56.5 152.5t-138.5 56.5q-104 0 -182 -82t-78 -203v-659h-166v735q0 96 -50 152.5t-132 56.5q-102 0 -187 -83t-85 -202v-659 h-166z" />
<glyph unicode="n" horiz-adv-x="1081" d="M113 0v1059h166v-139h4q122 163 332 163h3q168 0 262.5 -88t94.5 -252v-743h-166v729q0 102 -63.5 158.5t-176.5 56.5q-127 0 -208.5 -82t-81.5 -211v-651h-166z" />
<glyph unicode="o" d="M53 528.5q0 237.5 140.5 397t372 159.5t370.5 -159.5t139 -397t-139 -397.5t-370.5 -160t-372 160t-140.5 397.5zM223 528.5q0 -182.5 89 -300t253 -117.5t252 117.5t88 299.5q0 184 -89 302t-251 118q-164 0 -253 -118.5t-89 -301z" />
<glyph unicode="p" horiz-adv-x="1130" d="M113 -340v1399h166v-150h4q129 174 340 174q205 0 329.5 -148.5t124.5 -408.5q0 -256 -123 -406.5t-338 -150.5q-213 0 -333 156h-4v-465h-166zM268 524q0 -186 82 -300.5t254 -114.5q147 0 225 114.5t78 301t-77.5 302t-223.5 115.5q-166 0 -252 -117.5t-86 -300.5z" />
<glyph unicode="q" horiz-adv-x="1130" d="M59 526q0 258 128 407.5t327 149.5q217 0 334 -165h4v141h166v-1399h-166v469h-4q-125 -160 -328 -160q-215 0 -338 150.5t-123 406.5zM229 524q0 -188 76 -301.5t223 -113.5q174 0 254 111.5t80 304t-84 305t-252 112.5q-145 0 -221 -115.5t-76 -302.5z" />
<glyph unicode="r" horiz-adv-x="702" d="M113 0v1059h166v-176h4q51 84 133 136t182 52q37 0 68 -12v-160h-7q-31 10 -73 10q-127 0 -217 -89t-90 -232v-588h-166z" />
<glyph unicode="s" horiz-adv-x="978" d="M45 344h170q29 -235 301 -235h2q125 0 185.5 48t60.5 126q0 84 -59.5 120.5t-217.5 69.5q-66 14 -103.5 23.5t-90.5 27t-83 39t-60.5 52t-44 75.5t-13.5 101q0 135 99.5 212.5t281.5 77.5q377 0 416 -331h-170q-12 104 -71.5 152t-178.5 48q-109 0 -161 -42t-52 -109 q0 -78 61.5 -110t223.5 -64q98 -20 154.5 -38t117.5 -53.5t90 -95t29 -147.5q0 -156 -115 -239t-303 -83q-217 0 -337 97.5t-132 277.5z" />
<glyph unicode="t" horiz-adv-x="628" d="M45 924v135h154v334h166v-334h204v-135h-204v-688q0 -98 106 -99q45 0 88 15h6v-144q-68 -14 -133 -14q-233 0 -233 205v725h-154z" />
<glyph unicode="u" horiz-adv-x="1064" d="M106 326v733h166v-729q0 -102 62.5 -159.5t175.5 -57.5q125 0 200.5 84t75.5 211v651h166v-1059h-166v145h-4q-125 -170 -319 -170q-164 0 -260.5 93.5t-96.5 257.5z" />
<glyph unicode="v" horiz-adv-x="944" d="M4 1059h178l219 -672l70 -223h4q39 131 70 223l223 672h172l-381 -1059h-184z" />
<glyph unicode="w" horiz-adv-x="1503" d="M8 1059h178l187 -653l57 -228h4q31 139 53 223l179 658h174l172 -658l51 -223h4q33 139 59 228l197 653h172l-346 -1059h-170l-176 641l-51 221h-4q-29 -133 -54 -221l-178 -641h-172z" />
<glyph unicode="x" horiz-adv-x="1030" d="M12 0l400 555l-353 504h193l252 -385h4l262 385h182l-348 -486l414 -573h-195l-313 455h-4l-307 -455h-187z" />
<glyph unicode="y" horiz-adv-x="1001" d="M4 1059h180l250 -660l72 -206h4q37 119 70 206l241 660h176l-452 -1145q-61 -156 -127 -210t-170 -54q-94 0 -150 22v148h8q41 -23 113 -23q55 0 92 28t66 101l41 105z" />
<glyph unicode="z" horiz-adv-x="964" d="M70 0v131l589 776v6h-555v146h787v-98l-608 -803v-6h630v-152h-843z" />
<glyph unicode="{" horiz-adv-x="606" d="M49 590v137q78 2 109.5 35t31.5 102v357q0 176 79 249.5t239 73.5h37v-135h-33q-82 0 -116 -41t-34 -149v-367q0 -156 -114 -190v-7q115 -35 114 -190v-375q0 -109 34 -149.5t116 -40.5h33v-142h-37q-160 0 -239 77t-79 253v365q0 70 -30.5 102.5t-110.5 34.5z" />
<glyph unicode="|" horiz-adv-x="458" d="M158 -242v1786h143v-1786h-143z" />
<glyph unicode="}" horiz-adv-x="606" d="M61 -100h33q84 0 117 37.5t33 146.5v375q0 156 114 190v6q-115 35 -114 191v366q0 111 -34 154t-116 43h-33v135h37q160 0 239 -76.5t79 -253.5v-356q0 -70 30.5 -102.5t110.5 -34.5v-137q-78 -2 -109.5 -35t-31.5 -103v-364q0 -176 -79 -250t-239 -74h-37v142z" />
<glyph unicode="~" horiz-adv-x="804" d="M74 561q4 109 53 173.5t131 64.5q68 0 158 -47q82 -41 112 -41q66 0 70 84h133q-8 -238 -184 -238q-51 0 -146 41q-106 47 -133 47q-57 0 -61 -84h-133z" />
<glyph unicode="&#xa1;" horiz-adv-x="481" d="M141 1001v203h199v-203h-199zM150 209l45 641h92l45 -641v-469h-182v469z" />
<glyph unicode="&#xa2;" horiz-adv-x="1062" d="M53 528.5q0 219.5 122 374t327 178.5v129h114v-127q164 -14 269.5 -111.5t132.5 -254.5h-168q-16 96 -76.5 155.5t-157.5 71.5v-831q215 29 238 260h164q-16 -178 -120.5 -281.5t-281.5 -118.5v-147h-114v149q-205 23 -327 178.5t-122 375zM223 528.5q0 -163.5 72 -276.5 t207 -137v827q-133 -23 -206 -136.5t-73 -277z" />
<glyph unicode="&#xa3;" d="M63 131q70 51 110 89t71.5 102.5t31.5 142.5q0 59 -26 151h-170v132h125q-66 170 -66 288q0 174 128 286t339 112q195 0 325 -117t132 -352h-168q-2 168 -82 246.5t-213 78.5t-208 -68.5t-75 -187.5q0 -23 3.5 -48t7.5 -44.5t12 -50.5t13 -46.5t17.5 -50t16.5 -46.5h293 v-132h-256q14 -68 14 -120q0 -180 -164 -314l5 -4q94 33 161 33q78 0 185.5 -42t165.5 -42q102 0 213 98l98 -121q-147 -129 -318 -129q-96 0 -220 54.5t-199 54.5q-14 0 -30 -3t-28 -5t-28.5 -9.5t-24.5 -11.5t-25.5 -15t-21.5 -14t-23.5 -15.5t-21.5 -14.5z" />
<glyph unicode="&#xa4;" horiz-adv-x="991" d="M37 330l135 139q-74 104 -74 246q0 139 74 243l-135 140l88 84l131 -135q104 78 239.5 77.5t239.5 -77.5l131 135l88 -84l-135 -140q72 -106 72 -243t-74 -244l137 -141l-88 -84l-133 135q-100 -74 -237.5 -74t-237.5 74l-133 -135zM260 715q0 -123 63.5 -202t172 -79 t171 79t62.5 202t-62.5 202.5t-171 79.5t-172 -79.5t-63.5 -202.5z" />
<glyph unicode="&#xa5;" horiz-adv-x="1150" d="M20 1403h193l365 -649h4l364 649h184l-440 -735h344v-111h-368v-141h368v-111h-368v-305h-172v305h-369v111h369v141h-369v111h340z" />
<glyph unicode="&#xa6;" horiz-adv-x="458" d="M158 -242v844h143v-844h-143zM158 733v811h143v-811h-143z" />
<glyph unicode="&#xa7;" horiz-adv-x="1191" d="M57 657q0 203 232 279q-82 92 -82 194q0 137 106.5 221.5t280.5 84.5q188 0 293.5 -100.5t116.5 -276.5h-170q-16 229 -244 229q-102 0 -156.5 -42t-54.5 -109q0 -39 17.5 -71t69.5 -70t92 -60.5t138 -75.5q94 -51 139.5 -76.5t115 -72.5t101 -86t57.5 -95.5t26 -117.5 q0 -221 -234 -293q90 -96 90 -199q0 -135 -101.5 -218t-273.5 -83q-209 0 -329.5 110.5t-124.5 293.5h170q16 -256 289 -256q96 0 147 41.5t51 109.5q0 70 -68.5 125t-250.5 160q-33 18 -51 28q-213 121 -302.5 208t-89.5 218zM223 674q0 -80 58.5 -134.5t238.5 -158.5 q207 -119 285 -178q164 47 164 200q0 80 -59.5 131.5t-237.5 149.5q-33 19 -51 29q-162 88 -236 143q-78 -20 -120 -70.5t-42 -111.5z" />
<glyph unicode="&#xa8;" horiz-adv-x="1024" d="M264 1260v194h160v-194h-160zM600 1260v194h160v-194h-160z" />
<glyph unicode="&#xa9;" horiz-adv-x="1662" d="M82 727q0 328 216 546t533.5 218t533.5 -218t216 -546t-216 -545t-533.5 -217t-533.5 217t-216 545zM176 727q0 -295 186.5 -488.5t469 -193.5t469 193.5t186.5 488.5t-187.5 489.5t-468 194.5t-468 -194.5t-187.5 -489.5zM406 729q0 207 117.5 341t316.5 134 q158 0 255 -84t115 -215h-155q-14 78 -70.5 123t-146.5 45q-131 0 -202 -96t-71 -248q0 -150 75 -244t198 -94q98 0 156.5 55.5t68.5 141.5h151q-4 -139 -102 -232q-102 -96 -274 -96q-190 0 -311 132t-121 337z" />
<glyph unicode="&#xaa;" horiz-adv-x="983" d="M82 733q0 150 105.5 212.5t308.5 80.5q115 12 164 39t49 96q0 156 -197 156q-217 0 -233 -197h-152q8 137 106.5 226.5t276.5 89.5q344 0 344 -295v-436q0 -104 68 -105q14 0 34 4h7v-115q-43 -14 -84 -14q-145 0 -168 141h-4q-106 -150 -299 -149q-141 0 -233.5 69.5 t-92.5 196.5zM248 737q0 -149 188 -149q133 0 204 74.5t71 166.5v142q-72 -39 -211 -58q-133 -16 -192.5 -52t-59.5 -124z" />
<glyph unicode="&#xab;" horiz-adv-x="868" d="M102 467v178l281 236v-162l-190 -160v-4l190 -162v-162zM485 467v178l281 236v-162l-191 -160v-4l191 -162v-162z" />
<glyph unicode="&#xac;" horiz-adv-x="1146" d="M129 684v131h848v-520h-135v389h-713z" />
<glyph unicode="&#xad;" horiz-adv-x="704" d="M78 489v152h549v-152h-549z" />
<glyph unicode="&#xae;" horiz-adv-x="1081" d="M53 995q0 211 142.5 353.5t345 142.5t345 -142.5t142.5 -353.5q0 -213 -142.5 -354t-345 -141t-345 141t-142.5 354zM137 995q0 -184 114 -304t290 -120t289.5 120t113.5 304q0 182 -114.5 303t-288.5 121t-289 -120.5t-115 -303.5zM350 739v525h242q72 0 119 -42 t47 -106q0 -100 -99 -125v-2q74 -20 82 -106q2 -18 4.5 -41t3.5 -37t2 -28.5t4 -21.5t9 -10v-6h-100q-18 8 -23 121q-4 90 -100 90h-86v-211h-105zM455 1030h114q86 0 86 74t-86 74h-114v-148z" />
<glyph unicode="&#xaf;" horiz-adv-x="1024" d="M248 1274v137h528v-137h-528z" />
<glyph unicode="&#xb0;" horiz-adv-x="651" d="M70 1183.5q0 104.5 74.5 178.5t181 74t181.5 -74t75 -178.5t-75 -178t-181.5 -73.5t-181 73.5t-74.5 178zM182 1183.5q0 -67.5 40.5 -111.5t103.5 -44q66 0 104.5 44t38.5 111.5t-39 111.5t-104 44q-63 0 -103.5 -44t-40.5 -111.5z" />
<glyph unicode="&#xb1;" horiz-adv-x="1146" d="M109 0v131h929v-131h-929zM109 643v131h397v369h135v-369h397v-131h-397v-369h-135v369h-397z" />
<glyph unicode="&#xb2;" horiz-adv-x="714" d="M47 561q2 68 24.5 124t63.5 101t76 74t90 66q14 10 60.5 39.5t61.5 42t42 39t36 51t9 55.5q0 68 -40 106.5t-105 38.5q-74 0 -116 -48t-42 -140h-139q0 150 80.5 229.5t224.5 79.5q129 0 209 -75.5t80 -188.5q0 -57 -17.5 -102t-57.5 -83t-69 -57.5t-88 -56.5 q-4 -2 -28.5 -17.5t-32 -19.5t-29 -18.5t-30.5 -22.5t-26.5 -21.5t-25.5 -23.5t-17.5 -24.5t-13.5 -26.5h432v-121h-612z" />
<glyph unicode="&#xb3;" horiz-adv-x="751" d="M45 844h139q10 -184 193 -185q80 0 126 39t46 113q0 139 -182 139h-54v113h52q76 0 117.5 32.5t41.5 90t-41 91.5t-104 34q-78 0 -121 -45t-47 -123h-139q4 127 86 202.5t223 75.5q127 0 206 -62.5t79 -168.5q0 -129 -138 -174v-4q170 -41 170 -213q0 -121 -90 -188.5 t-225 -67.5q-154 0 -245 81t-93 220z" />
<glyph unicode="&#xb4;" horiz-adv-x="1024" d="M430 1225l105 260h204l-168 -260h-141z" />
<glyph unicode="&#xb5;" horiz-adv-x="1071" d="M113 -340v1399h166v-729q0 -102 62 -159.5t175 -57.5q125 0 201 84t76 211v651h165v-1059h-165v145h-5q-125 -170 -309 -170q-133 0 -196 72h-4v-387h-166z" />
<glyph unicode="&#xb6;" horiz-adv-x="1124" d="M59 1100q0 156 105 264q98 100 295 100h528v-1464h-151v1305h-142v-1305h-151v723h-70q-203 0 -308.5 99.5t-105.5 277.5z" />
<glyph unicode="&#xb7;" horiz-adv-x="378" d="M96 539v202h199v-202h-199z" />
<glyph unicode="&#xb8;" horiz-adv-x="1024" d="M248 -332l33 60q72 -31 147 -31q119 0 119 65q0 57 -78 58q-41 0 -84 -15l-33 50l146 145h114l-120 -100v-4q68 8 128 -24t60 -108q0 -72 -58.5 -113.5t-154.5 -41.5q-131 0 -219 59z" />
<glyph unicode="&#xb9;" horiz-adv-x="520" d="M47 1153v100q203 4 225 156h125v-848h-147v592h-203z" />
<glyph unicode="&#xba;" horiz-adv-x="1042" d="M74 946q0 209 122.5 349.5t325.5 140.5t325 -140.5t122 -349.5t-122 -349t-325 -140t-325.5 140t-122.5 349zM238 946q0 -160 73.5 -260t210.5 -100t210 99t73 261t-73 262.5t-210 100.5t-210.5 -101.5t-73.5 -261.5z" />
<glyph unicode="&#xbb;" horiz-adv-x="868" d="M102 231v162l191 160v4l-191 162v162l281 -236v-178zM485 231v162l191 160v4l-191 162v162l281 -236v-178z" />
<glyph unicode="&#xbc;" horiz-adv-x="1595" d="M53 1214v101q203 4 226 155h124v-847h-147v591h-203zM215 0l928 1464h147l-928 -1464h-147zM854 193v145l418 514h139v-547h133v-112h-133v-193h-141v193h-416zM973 305h297v359h-4l-293 -355v-4z" />
<glyph unicode="&#xbd;" horiz-adv-x="1646" d="M53 1214v101q203 4 226 155h124v-847h-147v591h-203zM190 0l928 1464h148l-928 -1464h-148zM973 0q6 127 72.5 208t181.5 157q12 8 46 29.5t45 29.5t36.5 26.5t35 31t22.5 30.5t18.5 37.5t5.5 42.5q0 68 -40 106.5t-106 38.5q-74 0 -115.5 -48t-41.5 -140h-140 q0 150 81 229.5t224 79.5q129 0 209 -75.5t80 -188.5q0 -53 -15.5 -95t-55 -79t-62 -53.5t-84.5 -53.5q-14 -10 -22 -14q-180 -109 -203 -178h440v-121h-612z" />
<glyph unicode="&#xbe;" horiz-adv-x="1730" d="M51 905h139q10 -184 193 -184q80 0 126 39t46 112q0 139 -182 140h-54v112h52q76 0 117.5 33t41.5 90.5t-40.5 91t-104.5 33.5q-78 0 -121 -45t-47 -123h-139q4 127 86 203t223 76q127 0 206 -62.5t79 -169.5q0 -129 -137 -174v-4q170 -41 170 -213q0 -121 -90.5 -188.5 t-225.5 -67.5q-154 0 -245 81t-93 220zM373 0l927 1464h148l-928 -1464h-147zM989 193v145l418 514h139v-547h133v-112h-133v-193h-141v193h-416zM1108 305h297v359h-4l-293 -355v-4z" />
<glyph unicode="&#xbf;" horiz-adv-x="1032" d="M61 104q0 115 50.5 193t138.5 152q135 113 175 182t42 219h156q-2 -166 -48.5 -263.5t-166.5 -203.5q-63 -57 -88 -80.5t-53.5 -79t-28.5 -117.5q0 -104 73.5 -174.5t202.5 -70.5q154 0 232.5 93t82.5 257h168q-4 -223 -124.5 -360.5t-364.5 -137.5q-209 0 -328 112 t-119 279zM446 1001v203h199v-203h-199z" />
<glyph unicode="&#xc0;" horiz-adv-x="1327" d="M20 0l539 1464h207l541 -1464h-201l-156 446h-583l-158 -446h-189zM420 596h479l-168 491l-65 207h-4q-39 -123 -68 -207zM446 1790h205l105 -248h-142z" />
<glyph unicode="&#xc1;" horiz-adv-x="1327" d="M20 0l539 1464h207l541 -1464h-201l-156 446h-583l-158 -446h-189zM420 596h479l-168 491l-65 207h-4q-39 -123 -68 -207zM592 1542l104 248h205l-168 -248h-141z" />
<glyph unicode="&#xc2;" horiz-adv-x="1327" d="M20 0l539 1464h207l541 -1464h-201l-156 446h-583l-158 -446h-189zM387 1550l191 217h188l182 -217h-178l-100 129h-4l-105 -129h-174zM420 596h479l-168 491l-65 207h-4q-39 -123 -68 -207z" />
<glyph unicode="&#xc3;" horiz-adv-x="1327" d="M20 0l539 1464h207l541 -1464h-201l-156 446h-583l-158 -446h-189zM383 1561q16 188 158 188q59 0 133 -33t106 -33q47 0 56 62h118q-10 -189 -155 -189q-55 0 -139.5 33t-106.5 33q-43 0 -47 -61h-123zM420 596h479l-168 491l-65 207h-4q-39 -123 -68 -207z" />
<glyph unicode="&#xc4;" horiz-adv-x="1327" d="M20 0l539 1464h207l541 -1464h-201l-156 446h-583l-158 -446h-189zM420 596h479l-168 491l-65 207h-4q-39 -123 -68 -207zM420 1556v195h160v-195h-160zM756 1556v195h159v-195h-159z" />
<glyph unicode="&#xc5;" horiz-adv-x="1327" d="M20 0l539 1464h207l541 -1464h-201l-156 446h-583l-158 -446h-189zM420 596h479l-168 491l-65 207h-4q-39 -123 -68 -207zM489 1702q0 72 52.5 123t126 51t126 -51t52.5 -123t-52.5 -123t-126 -51t-126 51t-52.5 123zM571 1702q0 -43 27 -73t70 -30t69.5 30t26.5 73 t-26.5 72.5t-69.5 29.5t-70 -29.5t-27 -72.5z" />
<glyph unicode="&#xc6;" horiz-adv-x="1937" d="M29 0l532 1464h1274v-161h-760v-463h682v-156h-682v-514h785v-170h-969v446h-518l-158 -446h-186zM426 596h465v707h-213z" />
<glyph unicode="&#xc7;" horiz-adv-x="1452" d="M82 733q0 332 187.5 548t506.5 216q250 0 403.5 -129t184.5 -338h-180q-27 139 -134.5 223t-277.5 84q-236 0 -369 -169t-133 -435q0 -270 138.5 -435t365.5 -165q197 0 304.5 114.5t121.5 289.5h182q-2 -109 -50 -222.5t-126 -189.5q-143 -139 -383 -152l-88 -73v-4 q68 8 128.5 -24t60.5 -108q0 -72 -58.5 -113.5t-154.5 -41.5q-129 0 -219 59l32 60q72 -31 148 -31q119 0 119 65q0 57 -78 58q-41 0 -84 -15l-33 50l119 118q-287 20 -460 229.5t-173 530.5z" />
<glyph unicode="&#xc8;" horiz-adv-x="1273" d="M137 0v1464h1034v-161h-849v-463h772v-156h-772v-514h874v-170h-1059zM457 1790h205l104 -248h-141z" />
<glyph unicode="&#xc9;" horiz-adv-x="1273" d="M137 0v1464h1034v-161h-849v-463h772v-156h-772v-514h874v-170h-1059zM602 1542l105 248h204l-168 -248h-141z" />
<glyph unicode="&#xca;" horiz-adv-x="1273" d="M137 0v1464h1034v-161h-849v-463h772v-156h-772v-514h874v-170h-1059zM397 1550l191 217h188l182 -217h-178l-100 129h-4l-105 -129h-174z" />
<glyph unicode="&#xcb;" horiz-adv-x="1273" d="M137 0v1464h1034v-161h-849v-463h772v-156h-772v-514h874v-170h-1059zM430 1556v195h160v-195h-160zM766 1556v195h160v-195h-160z" />
<glyph unicode="&#xcc;" horiz-adv-x="466" d="M12 1790h205l105 -248h-142zM141 0v1464h185v-1464h-185z" />
<glyph unicode="&#xcd;" horiz-adv-x="466" d="M141 0v1464h185v-1464h-185zM158 1542l104 248h205l-168 -248h-141z" />
<glyph unicode="&#xce;" horiz-adv-x="466" d="M-47 1550l190 217h189l182 -217h-178l-100 129h-5l-104 -129h-174zM141 0v1464h185v-1464h-185z" />
<glyph unicode="&#xcf;" horiz-adv-x="466" d="M-14 1556v195h159v-195h-159zM141 0v1464h185v-1464h-185zM322 1556v195h159v-195h-159z" />
<glyph unicode="&#xd0;" horiz-adv-x="1423" d="M10 657v156h150v651h532q322 0 485.5 -198.5t163.5 -538.5q0 -338 -170 -532.5t-493 -194.5h-518v657h-150zM344 162h328q481 0 481 565q0 578 -467 578h-342v-492h424v-156h-424v-495z" />
<glyph unicode="&#xd1;" horiz-adv-x="1419" d="M137 0v1464h195l667 -1018l107 -188h4v1206h172v-1464h-188l-672 1020l-109 182h-4v-1202h-172zM459 1561q16 188 157 188q59 0 133 -33t107 -33q47 0 55 62h119q-11 -189 -156 -189q-55 0 -139 33t-106 33q-43 0 -47 -61h-123z" />
<glyph unicode="&#xd2;" horiz-adv-x="1597" d="M82 733q0 334 195.5 549t521 215t521.5 -215t196 -549t-196 -549t-521.5 -215t-521 215t-195.5 549zM270 733q0 -266 139.5 -434t389.5 -168t389 168t139 434t-139 435t-389 169t-389.5 -169t-139.5 -435zM578 1790h204l105 -248h-142z" />
<glyph unicode="&#xd3;" horiz-adv-x="1597" d="M82 733q0 334 195.5 549t521 215t521.5 -215t196 -549t-196 -549t-521.5 -215t-521 215t-195.5 549zM270 733q0 -266 139.5 -434t389.5 -168t389 168t139 434t-139 435t-389 169t-389.5 -169t-139.5 -435zM723 1542l104 248h205l-168 -248h-141z" />
<glyph unicode="&#xd4;" horiz-adv-x="1597" d="M82 733q0 334 195.5 549t521 215t521.5 -215t196 -549t-196 -549t-521.5 -215t-521 215t-195.5 549zM270 733q0 -266 139.5 -434t389.5 -168t389 168t139 434t-139 435t-389 169t-389.5 -169t-139.5 -435zM518 1550l191 217h188l182 -217h-178l-100 129h-4l-105 -129 h-174z" />
<glyph unicode="&#xd5;" horiz-adv-x="1597" d="M82 733q0 334 195.5 549t521 215t521.5 -215t196 -549t-196 -549t-521.5 -215t-521 215t-195.5 549zM270 733q0 -266 139.5 -434t389.5 -168t389 168t139 434t-139 435t-389 169t-389.5 -169t-139.5 -435zM514 1561q16 188 158 188q59 0 133 -33t106 -33q47 0 56 62h118 q-10 -189 -155 -189q-55 0 -139 33t-107 33q-43 0 -47 -61h-123z" />
<glyph unicode="&#xd6;" horiz-adv-x="1597" d="M82 733q0 334 195.5 549t521 215t521.5 -215t196 -549t-196 -549t-521.5 -215t-521 215t-195.5 549zM270 733q0 -266 139.5 -434t389.5 -168t389 168t139 434t-139 435t-389 169t-389.5 -169t-139.5 -435zM551 1556v195h160v-195h-160zM887 1556v195h160v-195h-160z" />
<glyph unicode="&#xd7;" horiz-adv-x="1146" d="M147 328l336 340l-336 340l93 88l333 -338l334 338l92 -88l-335 -340l335 -340l-92 -88l-334 335l-333 -335z" />
<glyph unicode="&#xd8;" horiz-adv-x="1597" d="M78 39l168 180q-164 205 -164 514q0 334 195.5 549t521.5 215q289 0 481 -176l162 172l78 -72l-166 -178q162 -207 162 -510q0 -334 -196 -549t-521 -215q-287 0 -480 172l-163 -174zM270 733q0 -225 101 -383l792 846q-141 141 -364 141q-250 0 -389.5 -169t-139.5 -435 zM436 268q142 -137 363 -137q250 0 389 168t139 434q0 225 -98 379z" />
<glyph unicode="&#xd9;" horiz-adv-x="1347" d="M113 473v991h184v-972q0 -356 383 -357q371 0 371 357v972h184v-991q0 -252 -154.5 -374t-406.5 -122q-256 0 -408.5 121t-152.5 375zM453 1790h204l105 -248h-141z" />
<glyph unicode="&#xda;" horiz-adv-x="1347" d="M113 473v991h184v-972q0 -356 383 -357q371 0 371 357v972h184v-991q0 -252 -154.5 -374t-406.5 -122q-256 0 -408.5 121t-152.5 375zM598 1542l104 248h205l-168 -248h-141z" />
<glyph unicode="&#xdb;" horiz-adv-x="1347" d="M113 473v991h184v-972q0 -356 383 -357q371 0 371 357v972h184v-991q0 -252 -154.5 -374t-406.5 -122q-256 0 -408.5 121t-152.5 375zM393 1550l191 217h188l182 -217h-178l-100 129h-4l-105 -129h-174z" />
<glyph unicode="&#xdc;" horiz-adv-x="1347" d="M113 473v991h184v-972q0 -356 383 -357q371 0 371 357v972h184v-991q0 -252 -154.5 -374t-406.5 -122q-256 0 -408.5 121t-152.5 375zM426 1556v195h160v-195h-160zM762 1556v195h160v-195h-160z" />
<glyph unicode="&#xdd;" horiz-adv-x="1292" d="M20 1464h205l420 -696h4l426 696h197l-537 -848v-616h-184v621zM569 1542l105 248h205l-168 -248h-142z" />
<glyph unicode="&#xde;" horiz-adv-x="1228" d="M137 0v1464h185v-260h426q229 0 348 -141q98 -115 98 -279q0 -205 -119 -317.5t-354 -112.5h-399v-354h-185zM322 504h385q152 0 228.5 71.5t76.5 200.5q0 131 -77 199.5t-218 68.5h-395v-540z" />
<glyph unicode="&#xdf;" horiz-adv-x="1030" d="M113 0v1114q0 166 110.5 266.5t300.5 100.5q168 0 279.5 -97.5t111.5 -253.5q0 -225 -221 -303v-4q125 -37 204 -135t79 -252q0 -211 -122 -335t-333 -124q-49 0 -104 11v135h4q168 -33 276.5 51t108.5 256q0 150 -83 235t-237 85h-55v127h62q115 0 186.5 68.5 t71.5 178.5q0 100 -62.5 162t-171.5 62q-115 0 -177 -67t-62 -177v-1104h-166z" />
<glyph unicode="&#xe0;" horiz-adv-x="1044" d="M49 274q0 74 23.5 128.5t60.5 88t101.5 59t124 39t151.5 27.5q59 8 85 13.5t66.5 16.5t57 25.5t31 39t14.5 57.5q0 90 -62.5 138t-175.5 48q-256 0 -264 -233h-160q4 162 112 260t310 98q391 0 391 -336v-503q0 -70 24 -98.5t89 -14.5h6v-121q-41 -16 -90 -16 q-158 0 -182 157h-2q-131 -168 -352 -167q-158 0 -258.5 75.5t-100.5 218.5zM225 279q0 -173 219 -173q154 0 238 89.5t84 195.5v180q-76 -47 -242 -77q-61 -12 -96 -19.5t-80 -25t-67.5 -38t-39 -54t-16.5 -78.5zM303 1485h205l104 -260h-141z" />
<glyph unicode="&#xe1;" horiz-adv-x="1044" d="M49 274q0 74 23.5 128.5t60.5 88t101.5 59t124 39t151.5 27.5q59 8 85 13.5t66.5 16.5t57 25.5t31 39t14.5 57.5q0 90 -62.5 138t-175.5 48q-256 0 -264 -233h-160q4 162 112 260t310 98q391 0 391 -336v-503q0 -70 24 -98.5t89 -14.5h6v-121q-41 -16 -90 -16 q-158 0 -182 157h-2q-131 -168 -352 -167q-158 0 -258.5 75.5t-100.5 218.5zM225 279q0 -173 219 -173q154 0 238 89.5t84 195.5v180q-76 -47 -242 -77q-61 -12 -96 -19.5t-80 -25t-67.5 -38t-39 -54t-16.5 -78.5zM459 1225l104 260h205l-168 -260h-141z" />
<glyph unicode="&#xe2;" horiz-adv-x="1044" d="M49 274q0 74 23.5 128.5t60.5 88t101.5 59t124 39t151.5 27.5q59 8 85 13.5t66.5 16.5t57 25.5t31 39t14.5 57.5q0 90 -62.5 138t-175.5 48q-256 0 -264 -233h-160q4 162 112 260t310 98q391 0 391 -336v-503q0 -70 24 -98.5t89 -14.5h6v-121q-41 -16 -90 -16 q-158 0 -182 157h-2q-131 -168 -352 -167q-158 0 -258.5 75.5t-100.5 218.5zM225 279q0 -173 219 -173q154 0 238 89.5t84 195.5v180q-76 -47 -242 -77q-61 -12 -96 -19.5t-80 -25t-67.5 -38t-39 -54t-16.5 -78.5zM244 1233l190 217h189l182 -217h-178l-101 129h-4 l-104 -129h-174z" />
<glyph unicode="&#xe3;" horiz-adv-x="1044" d="M49 274q0 74 23.5 128.5t60.5 88t101.5 59t124 39t151.5 27.5q59 8 85 13.5t66.5 16.5t57 25.5t31 39t14.5 57.5q0 90 -62.5 138t-175.5 48q-256 0 -264 -233h-160q4 162 112 260t310 98q391 0 391 -336v-503q0 -70 24 -98.5t89 -14.5h6v-121q-41 -16 -90 -16 q-158 0 -182 157h-2q-131 -168 -352 -167q-158 0 -258.5 75.5t-100.5 218.5zM225 279q0 -173 219 -173q154 0 238 89.5t84 195.5v180q-76 -47 -242 -77q-61 -12 -96 -19.5t-80 -25t-67.5 -38t-39 -54t-16.5 -78.5zM240 1235q16 188 157 188q59 0 133 -32.5t107 -32.5 q47 0 55 61h119q-11 -188 -156 -188q-55 0 -139 32.5t-106 32.5q-43 0 -48 -61h-122z" />
<glyph unicode="&#xe4;" horiz-adv-x="1044" d="M49 274q0 74 23.5 128.5t60.5 88t101.5 59t124 39t151.5 27.5q59 8 85 13.5t66.5 16.5t57 25.5t31 39t14.5 57.5q0 90 -62.5 138t-175.5 48q-256 0 -264 -233h-160q4 162 112 260t310 98q391 0 391 -336v-503q0 -70 24 -98.5t89 -14.5h6v-121q-41 -16 -90 -16 q-158 0 -182 157h-2q-131 -168 -352 -167q-158 0 -258.5 75.5t-100.5 218.5zM225 279q0 -173 219 -173q154 0 238 89.5t84 195.5v180q-76 -47 -242 -77q-61 -12 -96 -19.5t-80 -25t-67.5 -38t-39 -54t-16.5 -78.5zM276 1260v194h160v-194h-160zM612 1260v194h160v-194h-160z " />
<glyph unicode="&#xe5;" horiz-adv-x="1044" d="M49 274q0 74 23.5 128.5t60.5 88t101.5 59t124 39t151.5 27.5q59 8 85 13.5t66.5 16.5t57 25.5t31 39t14.5 57.5q0 90 -62.5 138t-175.5 48q-256 0 -264 -233h-160q4 162 112 260t310 98q391 0 391 -336v-503q0 -70 24 -98.5t89 -14.5h6v-121q-41 -16 -90 -16 q-158 0 -182 157h-2q-131 -168 -352 -167q-158 0 -258.5 75.5t-100.5 218.5zM225 279q0 -173 219 -173q154 0 238 89.5t84 195.5v180q-76 -47 -242 -77q-61 -12 -96 -19.5t-80 -25t-67.5 -38t-39 -54t-16.5 -78.5zM346 1319q0 72 52.5 123t126 51t125.5 -51t52 -123 t-52 -123t-125.5 -51t-126 51t-52.5 123zM428 1319q0 -43 26.5 -72.5t69.5 -29.5t70 29.5t27 72.5t-27 72.5t-70 29.5t-69.5 -29.5t-26.5 -72.5z" />
<glyph unicode="&#xe6;" horiz-adv-x="1722" d="M49 281q0 72 23.5 127t62.5 88.5t101.5 57.5t126 36t151.5 20q133 14 191.5 46t58.5 112q0 90 -59.5 138t-172.5 48q-254 0 -272 -233h-160q10 158 120 258t310 100q264 0 342 -166q121 172 342 172q223 0 341 -163.5t118 -432.5h-753q8 -172 86.5 -275t230.5 -103 q100 0 164.5 57t87.5 160h162q-29 -168 -139.5 -262.5t-274.5 -94.5q-264 0 -389 215h-4q-88 -127 -184 -166.5t-246 -39.5q-158 0 -261.5 77.5t-103.5 223.5zM225 285q0 -179 221 -179q154 0 237 89.5t83 195.5v162q-94 -49 -246 -66q-156 -18 -225.5 -58t-69.5 -144z M924 614h571q-2 158 -78 249t-203 91q-129 0 -201.5 -93t-88.5 -247z" />
<glyph unicode="&#xe7;" horiz-adv-x="1062" d="M53 528q0 238 140.5 397.5t371.5 159.5q186 0 305 -99t148 -269h-168q-18 109 -92 170t-193 61q-164 0 -253 -118.5t-89 -301t89 -300t253 -117.5q127 0 203 68.5t86 193.5h164q-14 -174 -115.5 -277.5t-271.5 -120.5l-90 -75v-4q68 8 128 -24t60 -108 q0 -72 -58.5 -113.5t-154.5 -41.5q-131 0 -219 59l33 60q72 -31 147 -31q119 0 119 65q0 57 -78 58q-41 0 -84 -15l-33 50l119 118q-213 16 -340 173t-127 382z" />
<glyph unicode="&#xe8;" horiz-adv-x="1091" d="M53 528q0 236 140.5 396.5t361.5 160.5q233 0 360 -162.5t127 -433.5h-819q10 -168 99.5 -273t242.5 -105q238 0 293 217h162q-37 -170 -156 -263.5t-299 -93.5q-236 0 -374 159t-138 398zM227 614h637q-8 160 -88 250t-221 90t-224 -94t-104 -246zM334 1485h205 l104 -260h-141z" />
<glyph unicode="&#xe9;" horiz-adv-x="1091" d="M53 528q0 236 140.5 396.5t361.5 160.5q233 0 360 -162.5t127 -433.5h-819q10 -168 99.5 -273t242.5 -105q238 0 293 217h162q-37 -170 -156 -263.5t-299 -93.5q-236 0 -374 159t-138 398zM227 614h637q-8 160 -88 250t-221 90t-224 -94t-104 -246zM489 1225l105 260h205 l-168 -260h-142z" />
<glyph unicode="&#xea;" horiz-adv-x="1091" d="M53 528q0 236 140.5 396.5t361.5 160.5q233 0 360 -162.5t127 -433.5h-819q10 -168 99.5 -273t242.5 -105q238 0 293 217h162q-37 -170 -156 -263.5t-299 -93.5q-236 0 -374 159t-138 398zM227 614h637q-8 160 -88 250t-221 90t-224 -94t-104 -246zM274 1233l191 217h188 l183 -217h-179l-100 129h-4l-104 -129h-175z" />
<glyph unicode="&#xeb;" horiz-adv-x="1091" d="M53 528q0 236 140.5 396.5t361.5 160.5q233 0 360 -162.5t127 -433.5h-819q10 -168 99.5 -273t242.5 -105q238 0 293 217h162q-37 -170 -156 -263.5t-299 -93.5q-236 0 -374 159t-138 398zM227 614h637q-8 160 -88 250t-221 90t-224 -94t-104 -246zM307 1260v194h160 v-194h-160zM643 1260v194h160v-194h-160z" />
<glyph unicode="&#xec;" horiz-adv-x="391" d="M-14 1485h202l95 -260h-140zM113 0v1059h166v-1059h-166z" />
<glyph unicode="&#xed;" horiz-adv-x="391" d="M113 0v1059h166v-1059h-166zM129 1225l94 260h203l-158 -260h-139z" />
<glyph unicode="&#xee;" horiz-adv-x="391" d="M-55 1233l159 217h189l151 -217h-168l-79 125h-4l-84 -125h-164zM113 0v1059h166v-1059h-166z" />
<glyph unicode="&#xef;" horiz-adv-x="391" d="M-25 1260v194h160v-194h-160zM113 0v1059h166v-1059h-166zM254 1260v194h160v-194h-160z" />
<glyph unicode="&#xf0;" d="M53 528.5q0 237.5 133 393t357 155.5q184 0 311 -151q-68 162 -211 311l-307 -94l-31 90l260 80q-61 57 -184 151h207q63 -43 133 -102l197 61l30 -90l-149 -47q276 -303 276 -731q0 -256 -138 -420t-372 -164q-231 0 -371.5 160t-140.5 397.5zM223 528.5 q0 -182.5 89 -300t253 -117.5q162 0 251 119.5t89 304.5q0 180 -91 292.5t-257 112.5q-160 0 -247 -114.5t-87 -297z" />
<glyph unicode="&#xf1;" horiz-adv-x="1081" d="M113 0v1059h166v-139h4q123 164 335 163q168 0 262.5 -88t94.5 -252v-743h-166v729q0 102 -63.5 158.5t-176.5 56.5q-127 0 -208.5 -82t-81.5 -211v-651h-166zM258 1235q16 188 158 188q59 0 133 -32.5t106 -32.5q47 0 56 61h118q-10 -188 -155 -188q-55 0 -139 32.5 t-107 32.5q-43 0 -47 -61h-123z" />
<glyph unicode="&#xf2;" d="M53 528.5q0 237.5 140.5 397t372 159.5t370.5 -159.5t139 -397t-139 -397.5t-370.5 -160t-372 160t-140.5 397.5zM223 528.5q0 -182.5 89 -300t253 -117.5t252 117.5t88 299.5q0 184 -89 302t-251 118q-164 0 -253 -118.5t-89 -301zM342 1485h205l104 -260h-141z" />
<glyph unicode="&#xf3;" d="M53 528.5q0 237.5 140.5 397t372 159.5t370.5 -159.5t139 -397t-139 -397.5t-370.5 -160t-372 160t-140.5 397.5zM223 528.5q0 -182.5 89 -300t253 -117.5t252 117.5t88 299.5q0 184 -89 302t-251 118q-164 0 -253 -118.5t-89 -301zM498 1225l104 260h205l-168 -260h-141 z" />
<glyph unicode="&#xf4;" d="M53 528.5q0 237.5 140.5 397t372 159.5t370.5 -159.5t139 -397t-139 -397.5t-370.5 -160t-372 160t-140.5 397.5zM223 528.5q0 -182.5 89 -300t253 -117.5t252 117.5t88 299.5q0 184 -89 302t-251 118q-164 0 -253 -118.5t-89 -301zM283 1233l190 217h189l182 -217h-178 l-101 129h-4l-104 -129h-174z" />
<glyph unicode="&#xf5;" d="M53 528.5q0 237.5 140.5 397t372 159.5t370.5 -159.5t139 -397t-139 -397.5t-370.5 -160t-372 160t-140.5 397.5zM223 528.5q0 -182.5 89 -300t253 -117.5t252 117.5t88 299.5q0 184 -89 302t-251 118q-164 0 -253 -118.5t-89 -301zM279 1235q16 188 157 188 q59 0 133 -32.5t107 -32.5q47 0 55 61h119q-11 -188 -156 -188q-55 0 -139 32.5t-106 32.5q-43 0 -48 -61h-122z" />
<glyph unicode="&#xf6;" d="M53 528.5q0 237.5 140.5 397t372 159.5t370.5 -159.5t139 -397t-139 -397.5t-370.5 -160t-372 160t-140.5 397.5zM223 528.5q0 -182.5 89 -300t253 -117.5t252 117.5t88 299.5q0 184 -89 302t-251 118q-164 0 -253 -118.5t-89 -301zM315 1260v194h160v-194h-160z M651 1260v194h160v-194h-160z" />
<glyph unicode="&#xf7;" horiz-adv-x="1146" d="M109 602v131h929v-131h-929zM475 215v203h199v-203h-199zM475 918v202h199v-202h-199z" />
<glyph unicode="&#xf8;" d="M45 29l123 133q-115 154 -115 366q0 238 140.5 397.5t371.5 159.5q197 0 338 -127l117 127l61 -57l-120 -131q115 -154 114 -369q0 -238 -139 -397.5t-371 -159.5q-201 0 -340 129l-119 -129zM223 528q0 -143 56 -247l522 567q-88 100 -236 100q-164 0 -253 -119 t-89 -301zM326 211q89 -100 239 -100q164 0 252 117.5t88 299.5q0 143 -55 248z" />
<glyph unicode="&#xf9;" horiz-adv-x="1064" d="M106 326v733h166v-729q0 -102 62.5 -159.5t175.5 -57.5q125 0 200.5 84t75.5 211v651h166v-1059h-166v145h-4q-125 -170 -319 -170q-164 0 -260.5 93.5t-96.5 257.5zM315 1485h205l105 -260h-142z" />
<glyph unicode="&#xfa;" horiz-adv-x="1064" d="M106 326v733h166v-729q0 -102 62.5 -159.5t175.5 -57.5q125 0 200.5 84t75.5 211v651h166v-1059h-166v145h-4q-125 -170 -319 -170q-164 0 -260.5 93.5t-96.5 257.5zM471 1225l104 260h205l-168 -260h-141z" />
<glyph unicode="&#xfb;" horiz-adv-x="1064" d="M106 326v733h166v-729q0 -102 62.5 -159.5t175.5 -57.5q125 0 200.5 84t75.5 211v651h166v-1059h-166v145h-4q-125 -170 -319 -170q-164 0 -260.5 93.5t-96.5 257.5zM256 1233l190 217h189l182 -217h-178l-100 129h-4l-105 -129h-174z" />
<glyph unicode="&#xfc;" horiz-adv-x="1064" d="M106 326v733h166v-729q0 -102 62.5 -159.5t175.5 -57.5q125 0 200.5 84t75.5 211v651h166v-1059h-166v145h-4q-125 -170 -319 -170q-164 0 -260.5 93.5t-96.5 257.5zM289 1260v194h160v-194h-160zM625 1260v194h159v-194h-159z" />
<glyph unicode="&#xfd;" horiz-adv-x="1001" d="M4 1059h180l250 -660l72 -206h4q37 119 70 206l241 660h176l-452 -1145q-61 -156 -127 -210t-170 -54q-94 0 -150 22v148h8q41 -23 113 -23q55 0 92 28t66 101l41 105zM444 1225l105 260h205l-168 -260h-142z" />
<glyph unicode="&#xfe;" horiz-adv-x="1130" d="M113 -340v1804h166v-555h4q129 174 340 174q205 0 329.5 -148.5t124.5 -408.5q0 -256 -123 -406.5t-338 -150.5q-213 0 -333 156h-4v-465h-166zM268 524q0 -186 82 -300.5t254 -114.5q147 0 225 114.5t78 301t-77.5 302t-223.5 115.5q-166 0 -252 -117.5t-86 -300.5z" />
<glyph unicode="&#xff;" horiz-adv-x="1001" d="M4 1059h180l250 -660l72 -206h4q37 119 70 206l241 660h176l-452 -1145q-61 -156 -127 -210t-170 -54q-94 0 -150 22v148h8q41 -23 113 -23q55 0 92 28t66 101l41 105zM262 1260v194h160v-194h-160zM598 1260v194h160v-194h-160z" />
<glyph unicode="&#x152;" horiz-adv-x="2195" d="M82 733q0 330 190.5 547t479.5 217q231 0 372 -168v135h969v-161h-784v-463h706v-156h-706v-514h809v-170h-994v115q-134 -146 -372 -146q-295 0 -482.5 216t-187.5 548zM270 733q0 -266 129.5 -434t356.5 -168q145 0 256.5 74t111.5 194v670q-8 115 -118.5 191.5 t-249.5 76.5q-225 0 -355.5 -170t-130.5 -434z" />
<glyph unicode="&#x153;" horiz-adv-x="1757" d="M53 528.5q0 239.5 123 398t338 158.5q244 0 363 -227q115 227 372 227q223 0 341 -163.5t118 -432.5h-754q8 -172 87 -275t231 -103q100 0 164.5 57t87.5 160h162q-29 -168 -139.5 -262.5t-274.5 -94.5q-276 0 -393 232q-117 -232 -365 -232q-215 0 -338 159t-123 398.5z M223 528.5q0 -184.5 75 -301t216 -116.5t215 116.5t74 301t-74 302t-215 117.5t-216 -117.5t-75 -302zM958 614h572q-2 158 -78 249t-203 91q-129 0 -201.5 -93t-89.5 -247z" />
<glyph unicode="&#x178;" horiz-adv-x="1292" d="M20 1464h205l420 -696h4l426 696h197l-537 -848v-616h-184v621zM397 1556v195h160v-195h-160zM733 1556v195h160v-195h-160z" />
<glyph unicode="&#x2c6;" horiz-adv-x="1024" d="M231 1233l191 217h188l183 -217h-179l-100 129h-4l-104 -129h-175z" />
<glyph unicode="&#x2dc;" horiz-adv-x="1024" d="M225 1235q16 188 158 188q59 0 133 -32.5t107 -32.5q47 0 55 61h119q-11 -188 -156 -188q-55 0 -139 32.5t-107 32.5q-43 0 -47 -61h-123z" />
<glyph unicode="&#x2000;" horiz-adv-x="938" />
<glyph unicode="&#x2001;" horiz-adv-x="1876" />
<glyph unicode="&#x2002;" horiz-adv-x="938" />
<glyph unicode="&#x2003;" horiz-adv-x="1876" />
<glyph unicode="&#x2004;" horiz-adv-x="625" />
<glyph unicode="&#x2005;" horiz-adv-x="469" />
<glyph unicode="&#x2006;" horiz-adv-x="312" />
<glyph unicode="&#x2007;" horiz-adv-x="312" />
<glyph unicode="&#x2008;" horiz-adv-x="234" />
<glyph unicode="&#x2009;" horiz-adv-x="375" />
<glyph unicode="&#x200a;" horiz-adv-x="104" />
<glyph unicode="&#x2010;" horiz-adv-x="704" d="M78 489v152h549v-152h-549z" />
<glyph unicode="&#x2011;" horiz-adv-x="704" d="M78 489v152h549v-152h-549z" />
<glyph unicode="&#x2012;" horiz-adv-x="704" d="M78 489v152h549v-152h-549z" />
<glyph unicode="&#x2013;" horiz-adv-x="1071" d="M98 451v141h875v-141h-875z" />
<glyph unicode="&#x2014;" horiz-adv-x="1644" d="M98 451v141h1448v-141h-1448z" />
<glyph unicode="&#x2018;" horiz-adv-x="346" d="M86 1038v205q0 199 172 225v-77q-78 -31 -78 -148h80v-205h-174z" />
<glyph unicode="&#x2019;" horiz-adv-x="346" d="M86 1260v204h174v-204q0 -199 -172 -226v78q78 31 78 148h-80z" />
<glyph unicode="&#x201a;" horiz-adv-x="346" d="M86 0v205h174v-205q0 -199 -172 -225v78q78 31 78 147h-80z" />
<glyph unicode="&#x201c;" horiz-adv-x="655" d="M86 1038v205q0 199 172 225v-77q-78 -31 -78 -148h80v-205h-174zM395 1038v205q0 199 172 225v-77q-78 -31 -78 -148h80v-205h-174z" />
<glyph unicode="&#x201d;" horiz-adv-x="655" d="M86 1260v204h174v-204q0 -199 -172 -226v78q78 31 78 148h-80zM395 1260v204h174v-204q0 -199 -172 -226v78q78 31 78 148h-80z" />
<glyph unicode="&#x201e;" horiz-adv-x="655" d="M86 0v205h174v-205q0 -199 -172 -225v78q78 31 78 147h-80zM395 0v205h174v-205q0 -199 -172 -225v78q78 31 78 147h-80z" />
<glyph unicode="&#x2022;" horiz-adv-x="624" d="M70 665.5q0 100.5 71.5 172t172 71.5t171 -71.5t70.5 -172t-70.5 -171t-171 -70.5t-172 70.5t-71.5 171z" />
<glyph unicode="&#x2026;" horiz-adv-x="1259" d="M90 0v203h199v-203h-199zM530 0v203h199v-203h-199zM971 0v203h198v-203h-198z" />
<glyph unicode="&#x202f;" horiz-adv-x="375" />
<glyph unicode="&#x2039;" horiz-adv-x="503" d="M102 467v178l299 236v-162l-213 -160v-4l213 -162v-162z" />
<glyph unicode="&#x203a;" horiz-adv-x="503" d="M102 231v162l213 160v4l-213 162v162l299 -236v-178z" />
<glyph unicode="&#x205f;" horiz-adv-x="469" />
<glyph unicode="&#x20ac;" horiz-adv-x="1251" d="M45 518v111h119q-2 23 -2 69.5t2 71.5h-119v111h131q41 254 188.5 404.5t358.5 150.5q190 0 315 -115t150 -303h-168q-51 270 -301 270q-147 0 -239.5 -107.5t-123.5 -299.5h410v-111h-420q-2 -25 -2 -72t2 -69h420v-111h-410q31 -193 127.5 -296t247.5 -103 q137 0 215 90t96 256h160q-8 -217 -140 -356.5t-341 -139.5q-203 0 -352.5 146.5t-192.5 402.5h-131z" />
<glyph unicode="&#x2122;" horiz-adv-x="1308" d="M66 1368v96h483v-96h-184v-489h-115v489h-184zM645 879v585h164l127 -446h2l129 446h166v-585h-107v448h-4q-25 -92 -47 -166l-84 -282h-108l-84 282l-45 166h-4v-448h-105z" />
<glyph unicode="&#x25fc;" horiz-adv-x="1054" d="M0 0v1055h1055v-1055h-1055z" />
</font>
</defs>
</svg>
